<svg version="1.0" xmlns="http://www.w3.org/2000/svg"
 width="192.000000pt" height="192.000000pt" viewBox="0 0 192.000000 192.000000"
 preserveAspectRatio="xMidYMid meet">
<g transform="translate(0.000000,192.000000) scale(0.100000,-0.100000)"
fill="#fff" stroke="none">
<path d="M783 1369 c-153 -19 -294 -75 -337 -132 -46 -63 -57 -131 -31 -195
30 -70 102 -122 169 -122 l36 0 2 -187 3 -188 335 0 335 0 3 188 2 187 36 0
c93 0 184 95 184 193 0 55 -47 135 -98 168 -125 79 -409 118 -639 88z m452
-73 c96 -23 174 -64 203 -106 34 -49 27 -128 -13 -170 -50 -52 -124 -62 -183
-24 l-23 15 40 44 c43 47 51 72 25 82 -10 4 -32 -10 -62 -40 -60 -57 -113 -84
-196 -97 -124 -20 -238 14 -325 95 -80 75 -118 36 -41 -40 l40 -40 -22 -17
c-55 -43 -136 -30 -188 28 -58 67 -35 167 52 217 47 28 134 55 213 68 88 14
402 4 480 -15z m-455 -425 c0 -84 3 -111 15 -121 12 -10 18 -10 30 0 11 9 15
35 15 106 0 102 -1 100 59 88 l31 -6 0 -93 c0 -70 4 -96 15 -105 12 -10 18
-10 30 0 11 9 15 35 15 106 0 83 2 94 18 94 9 0 27 3 40 6 22 6 22 5 22 -96 0
-99 0 -101 23 -98 21 3 22 8 25 110 3 103 4 108 25 114 16 3 37 -4 65 -22 l42
-28 0 -163 0 -163 -290 0 -290 0 0 164 0 163 38 26 c68 47 72 42 72 -82z"/></g></svg>