<?xml version="1.0" standalone="no"?>
<!DOCTYPE svg PUBLIC "-//W3C//DTD SVG 20010904//EN"
 "http://www.w3.org/TR/2001/REC-SVG-20010904/DTD/svg10.dtd">
<svg version="1.0" xmlns="http://www.w3.org/2000/svg"
 width="800.000000pt" height="800.000000pt" viewBox="0 0 800.000000 800.000000"
 preserveAspectRatio="xMidYMid meet">
<metadata>
Created by potrace 1.11, written by Peter Selinger 2001-2013
</metadata>
<g transform="translate(0.000000,800.000000) scale(0.100000,-0.100000)"
fill="#000000" stroke="none">
<path d="M0 4000 l0 -4000 4000 0 4000 0 0 4000 0 4000 -4000 0 -4000 0 0
-4000z m4675 2669 c180 -12 410 -34 550 -53 221 -30 331 -46 360 -55 17 -5 48
-12 70 -15 55 -9 110 -21 255 -57 69 -17 143 -35 165 -40 22 -5 49 -13 60 -18
11 -4 54 -18 95 -31 41 -13 89 -29 107 -37 17 -7 35 -13 41 -13 42 0 486 -205
533 -246 8 -8 18 -14 21 -14 10 0 107 -68 174 -120 88 -71 209 -202 267 -290
82 -126 151 -284 178 -409 6 -25 14 -64 19 -86 5 -22 9 -58 10 -81 0 -22 5
-45 11 -51 15 -15 -5 -240 -30 -333 -48 -182 -104 -313 -186 -440 -68 -103
-249 -283 -358 -354 -214 -142 -437 -206 -714 -206 -56 0 -104 -4 -107 -9 -3
-5 -6 -506 -6 -1114 0 -697 -4 -1126 -10 -1159 -8 -39 -19 -62 -45 -88 l-35
-35 -373 -8 c-204 -4 -1144 -7 -2087 -5 l-1715 3 -38 23 c-20 13 -48 43 -62
66 l-25 43 0 1140 0 1140 -162 7 c-90 3 -183 10 -208 15 -69 14 -163 40 -182
51 -10 6 -23 10 -29 10 -19 0 -187 88 -261 137 -96 63 -262 229 -328 328 -30
44 -73 118 -96 165 -36 74 -51 115 -94 255 -15 48 -34 213 -33 290 1 88 17
242 31 286 6 19 20 66 32 104 57 190 170 370 326 522 157 152 308 245 639 393
99 44 350 129 545 184 56 16 162 40 305 70 44 10 98 21 120 27 76 18 415 64
580 79 61 5 157 15 215 21 256 27 1121 32 1475 8z"/>
<path d="M3595 6330 c-137 -5 -293 -13 -345 -19 -52 -6 -144 -15 -205 -21
-344 -33 -705 -94 -940 -160 -44 -12 -93 -26 -110 -30 -29 -7 -72 -20 -200
-62 -94 -31 -232 -86 -334 -134 -51 -24 -95 -44 -97 -44 -8 0 -163 -97 -209
-130 -27 -21 -83 -70 -124 -110 -487 -483 -282 -1304 379 -1511 68 -22 93 -24
270 -24 212 1 241 7 383 76 123 60 274 181 262 209 -3 8 -33 35 -67 60 -86 65
-304 283 -368 370 -93 125 -106 170 -71 245 32 70 86 105 162 105 54 0 99 -21
132 -61 205 -252 252 -298 440 -437 132 -98 458 -272 509 -272 8 0 18 -4 23
-9 13 -11 232 -76 305 -90 30 -6 82 -16 115 -21 33 -6 92 -16 130 -23 98 -17
645 -16 745 1 221 39 260 46 310 59 89 22 224 65 235 74 5 5 15 9 23 9 42 0
386 182 477 252 196 152 306 257 406 392 78 106 121 132 206 123 45 -5 63 -12
91 -39 92 -88 75 -194 -56 -351 -70 -84 -269 -280 -337 -333 -35 -27 -64 -56
-64 -65 -1 -26 140 -135 236 -184 160 -81 201 -90 418 -90 210 0 238 5 385 73
93 43 166 94 249 175 100 98 152 178 221 342 30 69 42 142 47 270 4 120 2 152
-16 225 -45 185 -112 309 -235 439 -123 129 -304 242 -546 341 -30 12 -68 28
-85 35 -54 23 -199 73 -275 95 -41 12 -95 28 -120 35 -25 7 -88 23 -140 35
-52 12 -111 26 -130 31 -19 5 -60 13 -90 18 -30 5 -109 19 -175 31 -471 83
-1146 120 -1820 100z"/>
<path d="M2559 4087 c-97 -94 -188 -161 -286 -213 -37 -20 -80 -43 -95 -52
l-28 -16 0 -1072 c0 -968 2 -1072 16 -1078 9 -3 836 -6 1840 -6 l1824 0 2
1073 c2 589 2 1077 0 1082 -1 6 -30 24 -63 40 -99 47 -227 138 -320 229 -49
47 -95 86 -103 86 -8 0 -45 -14 -82 -30 -37 -17 -84 -38 -103 -46 -20 -9 -55
-25 -78 -36 l-43 -19 -1 -97 c-1 -53 -4 -350 -8 -659 l-6 -562 -30 -31 c-42
-44 -76 -60 -131 -60 -57 0 -111 28 -144 77 l-25 36 -6 466 c-4 256 -7 526 -8
600 l-1 133 -27 -6 c-70 -16 -362 -56 -408 -56 -28 0 -56 -5 -63 -12 -9 -9
-12 -158 -12 -608 l0 -597 -30 -41 c-33 -46 -94 -82 -139 -82 -53 0 -118 35
-148 81 l-28 43 -5 605 -5 606 -45 3 c-126 9 -501 69 -527 85 -6 4 -15 2 -20
-5 -4 -7 -10 -288 -13 -624 l-5 -610 -27 -41 c-29 -45 -96 -83 -144 -83 -38 1
-103 31 -131 61 -49 53 -48 43 -51 756 l-3 672 -93 46 c-51 25 -97 45 -102 45
-5 -1 -48 -38 -95 -83z"/>
</g>
</svg>
